<?xml version="1.0" standalone="no"?>
<!DOCTYPE svg PUBLIC "-//W3C//DTD SVG 20010904//EN"
 "http://www.w3.org/TR/2001/REC-SVG-20010904/DTD/svg10.dtd">
<svg version="1.0" xmlns="http://www.w3.org/2000/svg"
 width="700.000000pt" height="700.000000pt" viewBox="0 0 700.000000 700.000000"
 preserveAspectRatio="xMidYMid meet">
<metadata>
Created by potrace 1.11, written by Peter Selinger 2001-2013
</metadata>
<g transform="translate(0.000000,700.000000) scale(0.100000,-0.100000)"
fill="#000000" stroke="none">
<path d="M5728 6705 c-2 -2 -46 -6 -98 -10 -78 -5 -201 -27 -348 -60 -38 -9
-133 -46 -210 -81 -41 -19 -76 -34 -79 -34 -12 0 -201 -130 -242 -166 -177
-156 -276 -291 -372 -509 -36 -82 -79 -238 -95 -345 -19 -132 -22 -180 -19
-345 4 -186 4 -192 30 -335 92 -500 430 -888 916 -1051 97 -32 243 -66 329
-75 30 -3 83 -9 117 -13 75 -9 325 -7 408 3 214 26 424 85 616 174 l66 30 1
301 c1 166 -1 301 -3 301 -3 0 -29 -16 -59 -35 -166 -106 -386 -192 -561 -219
-98 -15 -342 -16 -410 -2 -61 13 -176 49 -181 58 -3 4 -12 8 -19 8 -8 0 -47
21 -87 47 -189 120 -313 315 -365 573 -18 88 -26 379 -12 460 5 30 11 69 14
86 2 17 9 43 14 58 6 14 8 26 6 26 -8 0 39 119 73 186 70 139 195 264 331 333
62 32 183 70 255 81 100 15 328 5 444 -19 162 -34 344 -109 487 -201 33 -21
63 -39 66 -39 4 -1 6 135 5 300 l-1 301 -95 43 c-178 80 -410 143 -585 160
-68 7 -332 14 -337 10z"/>
<path d="M454 6652 l-20 -3 0 -1459 0 -1460 358 0 358 0 0 1068 0 1067 83
-195 c46 -107 197 -462 337 -788 l253 -592 240 2 239 3 123 290 c68 160 133
310 143 335 55 126 315 738 352 825 23 55 45 103 48 107 4 4 7 -472 6 -1057
l0 -1065 356 0 356 0 0 1462 -1 1462 -477 1 -478 0 -246 -575 c-135 -316 -256
-597 -268 -625 -12 -27 -51 -119 -87 -202 -35 -84 -66 -153 -69 -153 -3 0 -35
69 -70 153 -35 83 -74 175 -86 202 -24 54 -361 846 -451 1060 -30 72 -57 132
-59 135 -5 4 -906 7 -940 2z"/>
<path d="M2017 3414 c-1 -1 -38 -5 -82 -8 -44 -3 -118 -13 -165 -21 -47 -9
-98 -19 -114 -22 -112 -20 -345 -118 -469 -197 -206 -132 -395 -351 -492 -570
-30 -67 -83 -227 -90 -269 -3 -18 -8 -43 -10 -57 -25 -122 -29 -179 -30 -355
0 -158 6 -259 20 -345 23 -134 85 -326 142 -434 97 -183 260 -367 428 -482
306 -209 726 -301 1195 -260 207 18 537 114 671 195 l25 16 0 298 c0 163 -3
297 -6 297 -4 0 -19 -9 -33 -20 -14 -11 -28 -20 -32 -20 -4 0 -20 -9 -35 -20
-44 -31 -198 -106 -265 -129 -181 -60 -307 -80 -485 -76 -80 2 -156 6 -170 9
-14 3 -36 7 -50 10 -196 41 -387 182 -492 361 -98 169 -137 337 -136 590 1
199 27 348 84 473 13 29 24 55 24 58 0 3 21 38 46 77 56 86 160 190 237 236
57 33 162 79 199 86 11 2 27 6 36 9 89 27 333 30 472 5 180 -31 372 -106 525
-204 31 -19 61 -36 68 -38 9 -1 12 68 13 295 l1 296 -74 36 c-169 83 -413 150
-622 172 -54 6 -329 12 -334 8z"/>
<path d="M4898 3415 c-2 -1 -43 -5 -91 -9 -241 -17 -502 -101 -689 -221 -71
-46 -174 -129 -211 -170 -10 -11 -33 -36 -51 -55 -263 -287 -380 -712 -343
-1251 16 -238 107 -537 207 -686 17 -24 30 -46 30 -49 0 -11 120 -152 172
-203 174 -172 427 -300 688 -350 137 -26 244 -35 410 -35 220 0 362 21 590 88
91 27 254 113 360 191 281 205 456 515 521 925 21 129 17 623 -6 659 -2 4 -6
24 -9 46 -12 78 -58 229 -96 317 -163 379 -476 642 -888 747 -43 12 -96 23
-118 26 -21 4 -50 8 -64 11 -76 13 -401 28 -412 19z m323 -573 c174 -52 307
-168 396 -347 135 -269 157 -740 51 -1065 -86 -264 -254 -429 -493 -483 -95
-22 -286 -16 -375 11 -165 49 -268 131 -367 293 -49 79 -75 142 -104 252 -72
281 -55 677 39 917 95 240 284 407 497 437 22 3 42 7 45 10 12 12 249 -7 311
-25z"/>
</g>
</svg>
